# xmcd CD database file
#
# Track frame offsets:
#	150
#	16567
#	35980
#	54502
#	65995
#	87312
#	103942
#	122127
#	143462
#	165617
#	185347
#	201517
#	216847
#
# Disc length: 3207 seconds
#
# Revision: 1
# Processed by: cddbd v1.5.1PL0 Copyright (c) Steve Scherf et al.
# Submitted via: CDex 1.51
#
DISCID=c00c850d
DTITLE=The Steve Wingfield Band - Sophisticated Swing - The Music Of Duke Ellington
DYEAR=1999
DGENRE=Swing
TTITLE0=Take the "A" Train
TTITLE1=Caravan
TTITLE2=Chelsea Bridge
TTITLE3=Main Stem
TTITLE4=Satin Doll
TTITLE5=Solitude
TTITLE6="C" Jam Blues
TTITLE7=In a Sentimental Mood
TTITLE8=Lush Life
TTITLE9=Don't Get Around Much Anymore
TTITLE10=It Don't Mean a Thing (If It Ain't Got That Swing)
TTITLE11=Do Nothing 'til You Hear from Me
TTITLE12=Prelude to a Kiss
EXTD=YEAR: 1999
EXTT0=
EXTT1=
EXTT2=
EXTT3=
EXTT4=
EXTT5=
EXTT6=
EXTT7=
EXTT8=
EXTT9=
EXTT10=
EXTT11=
EXTT12=
PLAYORDER=
